<svg xmlns="http://www.w3.org/2000/svg" width="2000" height="2000" viewBox="0 0 800 800"><path fill="#041825" d="M0 0h800v800H0z"/><g fill="none"><path stroke="#086AA2" stroke-width="17" d="m-8-8 816 816M-8 792l816 816M-8-808 808 8"/><path stroke="#07669c" stroke-width="16" d="m-8 767 816 816M-8 17l816 816M-8-33l816 816M-8-783 808 33"/><path stroke="#076296" stroke-width="15" d="m-8 742 816 816M-8 42l816 816M-8-58l816 816M-8-758 808 58"/><path stroke="#075f90" stroke-width="14" d="m-8 67 816 816M-8 717l816 816M-8-733 808 83M-8-83l816 816"/><path stroke="#075b8b" stroke-width="13" d="m-8 92 816 816M-8 692l816 816M-8-108l816 816M-8-708l816 816"/><path stroke="#065785" stroke-width="12" d="m-8 667 816 816M-8 117l816 816M-8-133l816 816M-8-683l816 816"/><path stroke="#06537f" stroke-width="11" d="m-8 642 816 816M-8 142l816 816M-8-158l816 816M-8-658l816 816"/><path stroke="#06507a" stroke-width="10" d="m-8 167 816 816M-8 617l816 816M-8-633l816 816M-8-183l816 816"/><path stroke="#074c74" stroke-width="9" d="m-8 592 816 816M-8 192l816 816M-8-608l816 816M-8-208l816 816"/><path stroke="#07496e" stroke-width="8" d="m-8 567 816 816M-8 217l816 816M-8-233l816 816M-8-583l816 816"/><path stroke="#074569" stroke-width="7" d="m-8 242 816 816M-8 542l816 816M-8-558l816 816M-8-258l816 816"/><path stroke="#074163" stroke-width="6" d="m-8 267 816 816M-8 517l816 816M-8-533l816 816M-8-283l816 816"/><path stroke="#073e5e" stroke-width="5" d="m-8 292 816 816M-8 492l816 816M-8-308l816 816M-8-508l816 816"/><path stroke="#073a59" stroke-width="4" d="m-8 467 816 816M-8 317l816 816M-8-333l816 816M-8-483l816 816"/><path stroke="#073753" stroke-width="3" d="m-8 342 816 816M-8 442l816 816M-8-458l816 816M-8-358l816 816"/><path stroke="#07334e" stroke-width="2" d="m-8 367 816 816M-8 417l816 816M-8-433l816 816M-8-383l816 816"/><path stroke="#073049" d="m-8 392 816 816M-8-408l816 816"/></g></svg>