<svg xmlns="http://www.w3.org/2000/svg" width="2965" height="747"><path d="M576 2a68616 68616 0 0 0-491 99A125 125 0 0 0 1 223c1 15 2 19 37 204l39 196c13 58 70 101 129 95a27358 27358 0 0 1 401-79l63 24c215 85 199 78 207 79 6 0 7 0 12-3 7-5 11-11 11-20 0-6-1-7-12-30l-41-80 989-1 989-1 10-2a163 163 0 0 0 128-140c3-15 3-190 0-206a164 164 0 0 0-138-141l-1060-1H716l-3-13A124 124 0 0 0 617 3c-6-1-35-2-41-1m6 43a36116 36116 0 0 0-487 99 79 79 0 0 0-51 76 71697 71697 0 0 0 74 390c6 30 28 54 58 62 6 2 10 2 21 2h13l238-48c259-52 246-49 260-58 18-12 31-33 35-55 3-15 3-15-36-217l-39-194c0-3-3-9-6-14a79 79 0 0 0-80-43m-143 59c-5 3-6 8-5 18 1 7 1 9 4 11 2 2 2 3 2 5-1 4-6 10-9 11s-14 7-15 10l-1 17-1 15-3-6c-2-9-4-11-12-15-6-3-7-4-7-6l-3-5-3-3v-13c0-10-1-14-2-16-2-5-7-10-9-10l-4-2c-5-2-7-1-11 6-4 6-4 7-3 12v7l4 8c5 7 5 7 4 12l-6 8-9 7c-4 5-5 5-6 1-2-4-6-5-15-5-7 0-9 0-12-2s-5-6-4-9c1-2-3-19-5-22-4-7-18-7-23 1-4 6-2 23 5 32 3 3 4 7 4 8 0 4-4 8-9 9-3 1-4 2-7 6-3 6-5 6-14 3-10-3-11-4-13-8-2-3-2-3-1-6 3-7-2-24-7-27-4-3-14-2-17 0-4 3-6 9-5 14l1 9c0 5 0 6 3 8 5 5 7 8 7 13 0 6-2 8-6 11l-6 8c-3 5-3 8-4 18-1 12-2 16-6 16l-4 1-2 12c-1 13-1 14 7 14 6 0 7 2 10 14a127 127 0 0 0 14 34 816 816 0 0 1 32 84c-1 4-2 5-5 8l-8 6c-4 1-3 1-2 6 2 3 2 3 7 3l10-3 11-5 9-3c4-2 5-3 5 0l-2 4c0 2-1 5-3 7-4 8-2 12 7 11 6-1 11-3 12-7 0-2 2-4 4-6 4-4 4-4 1-9-2-3-2-5-1-12l1-10c1-2-8-37-11-42l-6-17-4-15-2-7-2-12-2-13-1-7v-16c0-12 0-12 3-15l3-3 1 2 3 5c1 2 2 5 2 16a210 210 0 0 0 14 67l4 12c1 2 4 13 4 18s3 18 7 29c4 12 4 18 0 25l-5 7c-3 1-4 5-3 7 1 5 14 1 19-5l8-6 4-4c1-1 0-6-1-12l-3-11a242 242 0 0 0-4-41l-2-11c-5-24-5-34 0-23a359 359 0 0 0 12 26l1 4 2 5c3 7 11 41 11 51v14c-2 8-2 12-1 13 3 0 14-3 16-5 4-5 5-22 2-31l-4-28-4-20a264 264 0 0 1-6-37 576 576 0 0 0-14-65l8 6a91 91 0 0 1 11 12c2 2 2 3 2 8-1 5 0 9 2 19 2 7 4 17 4 24a327 327 0 0 0 17 92c0 8 2 15 5 17h8c3 0 6-2 7-3s0-6-1-9l-2-5-6-18-2-15-2-18-1-13 1-29c0-24 0-31 2-31 1 0 5 10 6 17l3 8c2 5 4 12 5 28a128721 128721 0 0 1 5 36l2 14c0 7 2 9 10 8h10c9 2 19 1 21-2 2-4 0-9-5-9-3 0-9-2-12-5l-5-2c-3 0-4-2-4-13 0-12-1-24-3-30l-2-24a1618 1618 0 0 0-6-79l-4-10c0-4-2-7-3-9-2-3-1-3 2-3 8 2 10 3 10 6l2 7c3 5 4 13 5 27l2 14c2 4 6 23 6 25-1 1 0 7 2 14 3 11 4 22 4 28a224 224 0 0 0 10 41l2 8 2 5c0 3 9 13 12 13 3 1 13-1 14-3 1-3-2-10-6-14l-4-4 1-3c2-4 2-4 0-8l-2-6-2-6-3-8-1-14c-1-5-2-10-1-11l-1-10-2-9v-13c-1-14 0-13 3 2l4 12 2 8 5 16a296 296 0 0 1 8 26l2 6c2 7 4 8 11 8l11 1c12 3 21-1 17-7l-19-9c-2-1-2-2-2-5 0-4-1-5-5-9l-4-4-2-13c0-10-1-15-3-19s-2-6-2-11a271 271 0 0 0-10-84l6 2c2 1 3 1 5-2l2-5c0-4-3-14-6-17l-3-5-3-6-5-17-5-14c-2-3-10-6-15-6-3 0-10-5-11-8l1-6c2-5 1-8-2-18-2-7-3-8-5-10-5-3-9-3-13 0m285 57a51450 51450 0 0 0 64 324c4 12 13 31 26 58l11 22h997l998-1 8-2a122 122 0 0 0 92-94c1-8 2-15 2-105 0-105 0-101-6-119-15-46-55-78-102-83H724m243 74c-33 3-61 12-84 25-38 23-63 57-72 98-2 12-2 36 0 48 5 23 15 41 31 58 25 24 57 38 97 44a321 321 0 0 0 116-12l11-49-13 6c-15 7-33 14-47 17-11 2-41 3-53 1-20-2-37-8-52-18a82 82 0 0 1-40-77c1-23 9-43 25-62 19-23 46-37 81-42 10-2 37-2 48 0a136 136 0 0 1 67 29l3-15 4-22 2-7-8-4c-15-8-38-14-59-17-9-1-50-2-57-1m182 8-43 258v2h186v-3l4-19 3-16h-68l-67-1 7-42 6-42h136l2-17 4-18c0-2-4-2-67-2h-68v-2a1913 1913 0 0 0 11-62v-2h135v-3a675 675 0 0 0 6-32v-2h-187v3m222 128-22 131 77 1h76l4-18 3-21v-2h-101v-3a24795 24795 0 0 0 36-217c1-2-1-2-25-2h-27l-21 131m209-2-22 132v2h153l4-21 4-20h-102l1-3a61968 61968 0 0 0 36-216v-3h-52l-22 129m114-21-42 103c0 2 1 2 20 2h20l8-22a68707 68707 0 0 1 37-104l4 9c3 8 56 123 58 124a3568 3568 0 0 0 107-132 2069 2069 0 0 1 2 98v27h20l19-1-11-202v-4l-56 67a2185 2185 0 0 0-73 89 1748 1748 0 0 0-70-150l-3-6-40 102m425-93a106345 106345 0 0 0-135 192l-4 6h43l16-23 17-23h100l10 23 10 23h21l20-1-91-204-7 7m161 75-17 103-4 20h37v-3c3-12 22-134 22-138l8 9 43 40c90 81 111 100 112 99l33-203c0-2 0-2-18-2h-18l-10 54-12 78c0 9-1 8-10-1l-26-25a185773 185773 0 0 1-124-111l-3-3-13 83m492-80a9673 9673 0 0 0-105 149l-38 54h21l22-1 17-24 16-21 50-1h50l6 15 10 23 4 9h21l20-1-91-205-3 3m-207 105-17 100h40l33-198-20-1h-20l-16 99m-451-40c-2 5-13 21-23 36l-19 29h73l-10-27a418 418 0 0 1-16-46l-5 8m649 1a886 886 0 0 1-42 63 640 640 0 0 0 73 1 1350 1350 0 0 0-23-62l-3-10-5 8M571 429a5651 5651 0 0 0-32 95 1127 1127 0 0 1-50-77 2356 2356 0 0 0-7 112 3988 3988 0 0 1-58-94l-6 20c-16 65-28 109-29 109l-2-6-1-8a412 412 0 0 0-40 9l-3-28a834 834 0 0 1 41-9l-4-23-19 4-20 5-2-20 21-5 19-4v-7l-2-12v-5l-31 8-32 8 12 116c1 1 85-19 86-20l4-14 4-14c1 0 34-8 35-7l7 11 7 11 9-2h9c1 2 1 2 1 0l4-3 8-2 4-1v-10a1273 1273 0 0 0 3-50l19 29 19 30a679 679 0 0 0 25-73l7 27 7 28 22-5a880 880 0 0 0-35-123m-303 82-36 10 2 22 14-3 13-3a2818 2818 0 0 1 9 94l23-6a7181 7181 0 0 0-9-91c0-3 0-3 13-6l12-2v-5a1066 1066 0 0 1-3-19l-38 9m160 21-3 13 18-4-10-19-2-3-3 13" fill-rule="evenodd"/></svg>
